<?xml version="1.0" encoding="UTF-8" standalone="no"?>
<!-- Created with Inkscape (http://www.inkscape.org/) -->

<svg
   width="520"
   height="520"
   viewBox="0 0 137.58333 137.58334"
   version="1.1"
   id="svg1"
   xml:space="preserve"
   inkscape:version="1.4.3 (0d15f75, 2025-12-25)"
   sodipodi:docname="favicon.svg"
   xmlns:inkscape="http://www.inkscape.org/namespaces/inkscape"
   xmlns:sodipodi="http://sodipodi.sourceforge.net/DTD/sodipodi-0.dtd"
   xmlns="http://www.w3.org/2000/svg"
   xmlns:svg="http://www.w3.org/2000/svg"><sodipodi:namedview
     id="namedview1"
     pagecolor="#505050"
     bordercolor="#eeeeee"
     borderopacity="1"
     inkscape:showpageshadow="0"
     inkscape:pageopacity="0"
     inkscape:pagecheckerboard="0"
     inkscape:deskcolor="#505050"
     inkscape:document-units="mm"
     inkscape:zoom="1.0267829"
     inkscape:cx="73.043676"
     inkscape:cy="277.07901"
     inkscape:window-width="1920"
     inkscape:window-height="1017"
     inkscape:window-x="-8"
     inkscape:window-y="-8"
     inkscape:window-maximized="1"
     inkscape:current-layer="layer1" /><defs
     id="defs1" /><g
     inkscape:label="Capa 1"
     inkscape:groupmode="layer"
     id="layer1"><g
       transform="matrix(0.26455233,0,0,0.26455233,0.31932652,0.84558103)"
       id="g23"><radialGradient
         id="logo-bottom-left"
         cx="0"
         cy="0"
         gradientTransform="matrix(-59,-225,150,-39,161.4,470)"
         gradientUnits="userSpaceOnUse"
         r="1"><stop
           offset="0"
           stop-color="#fff"
           stop-opacity=".4"
           id="stop1" /><stop
           offset="1"
           stop-opacity=".1"
           id="stop2" /></radialGradient><radialGradient
         id="logo-top-right"
         cx="0"
         cy="0"
         gradientTransform="matrix(50,-379,280,37,360,374.2)"
         gradientUnits="userSpaceOnUse"
         r="1"><stop
           offset="0"
           stop-color="#fff"
           stop-opacity=".6"
           id="stop3" /><stop
           offset="1"
           stop-color="#fff"
           stop-opacity=".1"
           id="stop4" /></radialGradient><radialGradient
         id="logo-top-left"
         cx="0"
         cy="0"
         gradientTransform="matrix(69,-319,218,47,175.4,307)"
         gradientUnits="userSpaceOnUse"
         r="1"><stop
           offset="0"
           stop-color="#fff"
           stop-opacity=".8"
           id="stop5" /><stop
           offset="1"
           stop-color="#fff"
           stop-opacity=".4"
           id="stop6" /></radialGradient><radialGradient
         id="logo-bottom-right"
         cx="0"
         cy="0"
         gradientTransform="matrix(-96,-163,187,-111,335.3,512.2)"
         gradientUnits="userSpaceOnUse"
         r="1"><stop
           offset="0"
           stop-color="#fff"
           stop-opacity=".3"
           id="stop7" /><stop
           offset="1"
           stop-opacity=".3"
           id="stop8" /></radialGradient><radialGradient
         id="logo-top-edge"
         cx="0"
         cy="0"
         gradientTransform="matrix(-36,166,-112,-24,310,128.2)"
         gradientUnits="userSpaceOnUse"
         r="1"><stop
           offset="0"
           stop-color="#fff"
           stop-opacity="0"
           id="stop9" /><stop
           offset="1"
           stop-color="#fff"
           stop-opacity=".2"
           id="stop10" /></radialGradient><radialGradient
         id="logo-left-edge"
         cx="0"
         cy="0"
         gradientTransform="matrix(88,89,-190,187,111,220.2)"
         gradientUnits="userSpaceOnUse"
         r="1"><stop
           offset="0"
           stop-color="#fff"
           stop-opacity=".2"
           id="stop11" /><stop
           offset="1"
           stop-color="#fff"
           stop-opacity=".4"
           id="stop12" /></radialGradient><radialGradient
         id="logo-bottom-edge"
         cx="0"
         cy="0"
         gradientTransform="matrix(9,130,-276,20,215,284)"
         gradientUnits="userSpaceOnUse"
         r="1"><stop
           offset="0"
           stop-color="#fff"
           stop-opacity=".2"
           id="stop13" /><stop
           offset="1"
           stop-color="#fff"
           stop-opacity=".3"
           id="stop14" /></radialGradient><radialGradient
         id="logo-middle-edge"
         cx="0"
         cy="0"
         gradientTransform="matrix(-198,-104,327,-623,400,399.2)"
         gradientUnits="userSpaceOnUse"
         r="1"><stop
           offset="0"
           stop-color="#fff"
           stop-opacity=".2"
           id="stop15" /><stop
           offset=".5"
           stop-color="#fff"
           stop-opacity=".2"
           id="stop16" /><stop
           offset="1"
           stop-color="#fff"
           stop-opacity=".3"
           id="stop17" /></radialGradient><clipPath
         id="clip"><path
           d="m 0.2,0.2 h 512 v 512 H 0.2 Z"
           id="path17" /></clipPath><g
         clip-path="url(#clip)"
         id="g22"><path
           d="m 382.3,475.6 c -3.1,23.4 -26,41.6 -48.7,35.3 C 301.2,502 263.7,488.1 230,485.5 l -51.7,-4 a 34,34 0 0 1 -22,-10.2 l -89,-91.7 a 34,34 0 0 1 -6.7,-37.7 c 0,0 55,-121 57.1,-127.3 2,-6.3 9.6,-61.2 14,-90.6 1.2,-7.9 5,-15 11,-20.3 L 248,8.9 a 34.1,34.1 0 0 1 49.6,4.3 L 386,125.6 a 37,37 0 0 1 7.6,22.4 c 0,21.3 1.8,65 13.6,93.2 11.5,27.3 32.5,57 43.5,71.5 a 17.3,17.3 0 0 1 1.3,19.2 1494,1494 0 0 1 -44.8,70.6 c -15,22.3 -21.9,49.9 -25,73.1 z"
           fill="#6c31e3"
           id="path18" /><path
           d="m 165.9,478.3 c 41.4,-84 40.2,-144.2 22.6,-187 -16.2,-39.6 -46.3,-64.5 -70,-80 -0.6,2.3 -1.3,4.4 -2.2,6.5 L 60.6,342 a 34,34 0 0 0 6.6,37.7 l 89.1,91.7 a 34,34 0 0 0 9.6,7 z"
           fill="url(#logo-bottom-left)"
           id="path19"
           style="fill:url(#logo-bottom-left)" /><path
           d="m 278.4,307.8 c 11.2,1.2 22.2,3.6 32.8,7.6 34,12.7 65,41.2 90.5,96.3 1.8,-3.1 3.6,-6.2 5.6,-9.2 a 1536,1536 0 0 0 44.8,-70.6 17,17 0 0 0 -1.3,-19.2 c -11,-14.6 -32,-44.2 -43.5,-71.5 -11.8,-28.2 -13.5,-72 -13.6,-93.2 0,-8.1 -2.6,-16 -7.6,-22.4 L 297.6,13.2 a 34,34 0 0 0 -1.5,-1.7 96,96 0 0 1 2,54 198.3,198.3 0 0 1 -17.6,41.3 l -7.2,14.2 a 171,171 0 0 0 -19.4,71 c -1.2,29.4 4.8,66.4 24.5,115.8 z"
           fill="url(#logo-top-right)"
           id="path20"
           style="fill:url(#logo-top-right)" /><path
           d="M 278.4,307.8 C 258.7,258.4 252.6,221.4 253.9,191.9 a 171,171 0 0 1 19.4,-71 c 2.3,-4.8 4.8,-9.5 7.2,-14.1 7.1,-13.9 14,-27 17.6,-41.4 a 96,96 0 0 0 -2,-54 A 34.1,34.1 0 0 0 248,9 l -105.4,94.8 a 34.1,34.1 0 0 0 -10.9,20.3 l -12.8,85 -0.5,2.3 c 23.8,15.5 54,40.4 70.1,80 a 147,147 0 0 1 7.8,24.8 c 28,-6.8 55.7,-11 82.1,-8.3 z"
           fill="url(#logo-top-left)"
           id="path21"
           style="fill:url(#logo-top-left)" /><path
           d="m 333.6,511 c 22.7,6.2 45.6,-12 48.7,-35.4 a 187,187 0 0 1 19.4,-63.9 c -25.6,-55 -56.5,-83.6 -90.4,-96.3 -36,-13.4 -75.2,-9 -115,0.7 8.9,40.4 3.6,93.3 -30.4,162.2 4,1.8 8.1,3 12.5,3.3 0,0 24.4,2 53.6,4.1 29,2 72.4,17.1 101.6,25.2 z"
           fill="url(#logo-bottom-right)"
           id="path22"
           style="fill:url(#logo-bottom-right)" /></g></g></g></svg>
